<?xml version="1.0" standalone="no"?>
<!DOCTYPE svg PUBLIC "-//W3C//DTD SVG 20010904//EN"
 "http://www.w3.org/TR/2001/REC-SVG-20010904/DTD/svg10.dtd">
<svg version="1.0" xmlns="http://www.w3.org/2000/svg"
 width="300.000000pt" height="136.000000pt" viewBox="0 0 300.000000 136.000000"
 preserveAspectRatio="xMidYMid meet">
<metadata>
Created by potrace 1.10, written by Peter Selinger 2001-2011
</metadata>
<g transform="translate(0.000000,136.000000) scale(0.100000,-0.100000)"
fill="#dbe1df" stroke="none">
<path d="M812 1088 c2 -24 9 -32 28 -36 26 -5 985 -8 1173 -3 103 2 107 3 107
24 0 41 -13 50 -57 38 -153 -41 -1030 -42 -1198 -1 -56 14 -57 13 -53 -22z"/>
<path d="M738 784 c3 -64 0 -89 -10 -95 -8 -5 16 -9 60 -9 70 0 72 1 72 25 0
22 -4 25 -35 25 -35 0 -35 0 -35 46 l0 46 55 -4 c54 -3 55 -3 55 25 l0 27 -82
0 -83 0 3 -86z m44 34 c-15 -15 -26 -4 -18 18 5 13 9 15 18 6 9 -9 9 -15 0
-24z m2 -94 c6 -16 0 -34 -12 -34 -4 0 -8 11 -8 25 -2 28 11 34 20 9z m43 -20
c-3 -3 -12 -4 -19 -1 -8 3 -5 6 6 6 11 1 17 -2 13 -5z"/>
<path d="M940 780 c0 -57 -4 -90 -11 -90 -5 0 -8 -4 -5 -8 3 -4 20 -6 38 -4
l34 4 0 94 0 94 -28 0 -28 0 0 -90z m27 -62 c-3 -7 -5 -2 -5 12 0 14 2 19 5
13 2 -7 2 -19 0 -25z"/>
<path d="M1040 781 c0 -62 -4 -91 -12 -94 -7 -3 4 -6 25 -6 35 -1 37 0 37 32
0 21 -3 28 -9 19 -12 -19 -18 2 -15 56 2 61 2 61 25 55 14 -4 19 -12 16 -24
-3 -10 -1 -19 3 -21 4 -2 11 -19 15 -38 7 -32 6 -33 -9 -21 -16 13 -17 12 -10
-15 9 -40 12 -44 35 -44 23 0 23 10 4 94 -22 96 -22 96 -66 96 l-39 0 0 -89z"/>
<path d="M1172 775 l3 -95 28 0 27 0 0 95 0 95 -31 0 -31 0 4 -95z m36 40 c-3
-3 -9 2 -12 12 -6 14 -5 15 5 6 7 -7 10 -15 7 -18z"/>
<path d="M1270 775 c0 -67 -4 -95 -12 -95 -9 0 -9 -3 0 -12 7 -7 12 -36 12
-65 l0 -53 75 0 c110 0 113 5 111 165 -1 153 -3 155 -113 155 l-73 0 0 -95z
m54 54 c-9 -15 -34 -10 -28 5 3 8 12 12 20 9 8 -3 11 -9 8 -14z m101 0 c12
-19 -5 -23 -22 -6 -16 16 -16 17 -1 17 9 0 20 -5 23 -11z m-27 -113 c3 -106 0
-114 -45 -112 l-25 1 -2 108 -1 108 35 -3 35 -3 3 -99z m-88 -46 c0 -5 -7 -10
-15 -10 -8 0 -15 5 -15 10 0 6 7 10 15 10 8 0 15 -4 15 -10z m127 -10 c-2 -23
-12 -26 -20 -6 -3 8 -1 17 6 20 7 2 13 5 14 5 1 1 1 -8 0 -19z m-122 -80 c-6
-9 -9 -9 -16 1 -10 17 0 34 13 21 6 -6 7 -16 3 -22z m110 10 c-3 -5 -11 -10
-16 -10 -6 0 -7 5 -4 10 3 6 11 10 16 10 6 0 7 -4 4 -10z"/>
<path d="M1508 774 c-2 -52 -1 -124 0 -160 4 -63 4 -64 32 -64 28 0 28 1 27
58 -2 55 -3 57 -32 63 -20 4 -8 7 38 8 l68 1 -4 27 c-3 25 -7 27 -39 25 l-35
-3 -1 46 -1 46 57 -2 c55 -3 57 -2 60 24 l3 27 -85 0 -85 0 -3 -96z m55 61 c0
-6 -7 -11 -16 -13 -12 -3 -15 1 -11 13 7 17 25 17 27 0z m0 -111 c17 -21 17
-22 -3 -27 -17 -4 -20 0 -20 26 0 17 1 28 3 26 1 -2 10 -14 20 -25z"/>
<path d="M1708 774 c-2 -52 -1 -124 0 -160 l4 -64 84 0 84 0 0 30 c0 30 -1 30
-55 30 -55 0 -55 0 -55 31 0 22 -4 30 -13 26 -8 -3 -20 -1 -28 4 -10 6 -7 9
14 9 l27 0 0 95 0 95 -29 0 -30 0 -3 -96z m38 -44 c0 -12 -4 -16 -9 -11 -5 5
-6 14 -3 20 10 15 12 14 12 -9z m24 -139 c7 -15 7 -19 -5 -17 -20 3 -28 13
-20 25 9 15 13 14 25 -8z m60 -17 c0 -2 -9 -4 -20 -4 -11 0 -20 4 -20 9 0 5 9
7 20 4 11 -3 20 -7 20 -9z"/>
<path d="M1920 780 c0 -57 -4 -90 -11 -90 -5 0 -8 -4 -5 -8 3 -5 19 -7 35 -4
l30 4 3 94 3 94 -27 0 -28 0 0 -90z m35 51 c3 -5 1 -12 -5 -16 -5 -3 -10 1
-10 9 0 18 6 21 15 7z m5 -45 c0 -3 -4 -8 -10 -11 -5 -3 -10 -1 -10 4 0 6 5
11 10 11 6 0 10 -2 10 -4z"/>
<path d="M2031 799 c33 -80 36 -109 14 -109 -12 0 -14 -4 -7 -16 6 -11 3 -34
-9 -68 -11 -28 -19 -52 -19 -53 0 -2 13 -3 29 -3 26 0 29 4 46 65 17 64 18 65
52 65 29 0 33 3 28 19 -3 12 7 49 25 91 16 40 30 74 30 76 0 2 -13 4 -28 4
-26 0 -30 -6 -50 -62 -26 -74 -27 -82 -8 -75 10 4 13 1 9 -9 -3 -7 -9 -14 -15
-14 -5 0 -7 -4 -4 -9 4 -5 -3 -7 -14 -4 -14 4 -20 0 -20 -11 0 -9 -8 -16 -20
-16 -20 0 -20 0 0 20 11 11 17 27 14 37 -5 17 -5 17 9 1 15 -19 33 -13 19 6
-5 6 -19 39 -32 74 -20 56 -25 62 -51 62 l-28 0 30 -71z"/>
<path d="M738 610 c4 -56 5 -60 28 -60 23 0 24 3 24 60 0 59 -1 60 -27 60 -28
0 -28 0 -25 -60z"/>
<path d="M940 610 c0 -60 0 -60 30 -60 30 0 30 0 30 60 0 60 0 60 -30 60 -30
0 -30 0 -30 -60z"/>
<path d="M1040 610 c0 -59 0 -60 29 -60 28 0 28 0 27 60 -1 58 -2 60 -28 60
-27 0 -28 -1 -28 -60z"/>
<path d="M1120 666 c0 -1 4 -16 9 -32 5 -16 12 -41 15 -56 6 -25 11 -28 46
-28 l40 0 0 60 0 60 -55 0 c-30 0 -55 -2 -55 -4z m70 -22 c0 -8 4 -13 9 -9 6
3 9 -7 8 -22 -3 -39 -32 -42 -45 -5 -7 21 -7 33 1 41 16 16 27 14 27 -5z"/>
<path d="M1920 609 c0 -60 0 -60 28 -57 15 2 26 6 25 11 -2 4 -3 30 -3 57 0
47 -2 50 -25 50 -24 0 -25 -3 -25 -61z"/>
<path d="M2139 610 c14 -55 18 -60 43 -60 33 0 33 -2 11 67 -15 46 -20 53 -43
53 l-27 0 16 -60z"/>
<path d="M1035 379 c-104 -4 -197 -7 -206 -8 -12 -1 -17 -11 -17 -36 0 -29 3
-35 17 -31 9 3 28 8 43 11 15 4 29 13 32 21 3 8 10 14 17 14 6 0 9 -6 6 -13
-4 -11 5 -12 51 -3 88 16 864 14 992 -3 58 -7 115 -17 127 -22 22 -8 33 4 33
41 0 24 -29 27 -295 29 -121 1 -308 3 -415 4 -107 1 -280 -1 -385 -4z m-175
-39 c0 -5 -4 -10 -10 -10 -5 0 -10 5 -10 10 0 6 5 10 10 10 6 0 10 -4 10 -10z
m1240 6 c0 -3 -4 -8 -10 -11 -5 -3 -10 -1 -10 4 0 6 5 11 10 11 6 0 10 -2 10
-4z"/>
</g>
</svg>
